<svg xmlns="http://www.w3.org/2000/svg" viewBox="0 0 1030 1030">
  <defs>
    <style>
      .cls-1 {
        fill: none;
        opacity: 0.453;
      }

      .cls-2, .cls-3 {
        stroke: none;
      }

      .cls-3 {
        fill: #fff;
      }
    </style>
  </defs>
  <g id="Pfad_126" data-name="Pfad 126" class="cls-1">
    <path class="cls-2" d="M515,0c284.427,0,515,230.573,515,515s-230.573,515-515,515S0,799.427,0,515,230.573,0,515,0Z"/>
    <path class="cls-3" d="M 515 100 C 286.1681518554688 100 100 286.1681518554688 100 515 C 100 743.831787109375 286.1681518554688 930 515 930 C 743.831787109375 930 930 743.831787109375 930 515 C 930 286.1681518554688 743.831787109375 100 515 100 M 515 0 C 799.4268188476562 0 1030 230.5734252929688 1030 515 C 1030 799.4268188476562 799.4268188476562 1030 515 1030 C 230.5734252929688 1030 0 799.4268188476562 0 515 C 0 230.5734252929688 230.5734252929688 0 515 0 Z"/>
  </g>
</svg>
