<svg xmlns="http://www.w3.org/2000/svg" width="145.01192" height="123.15885" viewBox="0 0 145.01192 123.15885"><path d="M142.67,48.52a4.018,4.018,0,0,0-5.21.72,17.5,17.5,0,1,1,.41-22.45,4.053,4.053,0,0,0,3.18,1.49,4,4,0,0,0,3.96-4,3.91091,3.91091,0,0,0-.51-1.95,37.529,37.529,0,0,0-71.41,9.52,41.36963,41.36963,0,0,1,7.61,4.34,29.516,29.516,0,0,1,44.86-23.87c-.43-.02-.87-.03-1.3-.03a25.5,25.5,0,1,0-.6378,50.996q.47892.006.9578-.006a29.51908,29.51908,0,0,1-7.8,3,34.163,34.163,0,0,1,6.93,6.21,37.692,37.692,0,0,0,20.39-18.9A4.018,4.018,0,0,0,142.67,48.52Z" transform="translate(0.00188 0.00885)"/><path d="M96.21,123.15H25.6a25.6,25.6,0,0,1-4.28-50.84c-.04-.73-.07-1.46-.07-2.18a35.882,35.882,0,0,1,71.44-4.81,29.56788,29.56788,0,0,1,3.52-.22,29.025,29.025,0,0,1,0,58.05ZM25.48,79.96a17.6,17.6,0,0,0,.12,35.19H96.22a21.025,21.025,0,1,0-6.05-41.16l-5.15,1.55V69.97a27.88,27.88,0,1,0-55.28,5.26l.89,4.8Z" transform="translate(0.00188 0.00885)"/></svg>