<svg xmlns="http://www.w3.org/2000/svg" width="123.4419" height="113.92151" viewBox="0 0 123.4419 113.92151"><path d="M94.78,30.36a29.29938,29.29938,0,0,0-3.37.2,35.417,35.417,0,0,0-70.5,4.86c0,.68.02,1.37.06,2.05A25.289,25.289,0,0,0,22.3,87.5l4.83-7.9H25.29a17.20009,17.20009,0,0,1-.11-34.4l5.17.01-.89-4.79a27.317,27.317,0,1,1,54.17-5.11v5.58l5.21-1.56a20.566,20.566,0,1,1,5.92,40.26H92.91l-4.95,8.1h6.8a28.665,28.665,0,0,0,.02-57.33ZM62.61,49.66a4.045,4.045,0,0,0-5.55923,1.34872L57.05,51.01l-34,55.8a4.046,4.046,0,0,0,6.91,4.21l34-55.8A4.054,4.054,0,0,0,62.61,49.66ZM80.16,71.25a4.045,4.045,0,0,0-5.55922,1.34872L74.6,72.6,53.15,107.8a4.046,4.046,0,0,0,6.91,4.21l21.45-35.2A4.059,4.059,0,0,0,80.16,71.25Z" transform="translate(0.00689 0.00879)"/></svg>