<svg xmlns="http://www.w3.org/2000/svg" width="50" height="50" viewBox="0 0 50 50"><path d="M0,0V50H50V0ZM34.69061,29.62463A10.539,10.539,0,0,1,20.374,33.769L14,36l2.231-6.374a10.53875,10.53875,0,1,1,18.45959-.00135Z" style="fill:#fddc05"/><path d="M29.15,26.02a.64506.64506,0,0,0-.912,0l-.912.912a8.95238,8.95238,0,0,1-4.258-4.258l.912-.912a.64506.64506,0,0,0,0-.912l-1.522-1.521a.645.645,0,0,0-.912,0L20.33,20.545c-1.008,1.008.219,3.869,2.738,6.388s5.379,3.745,6.387,2.737l1.216-1.216.00079-.00079A.645.645,0,0,0,30.671,27.541Z" style="fill:#fddc05"/></svg>