<svg xmlns="http://www.w3.org/2000/svg" width="161.85055" height="107.93036" viewBox="0 0 161.85055 107.93036"><path d="M56.33,8.09a27.2,27.2,0,0,1,18.58,7.35,43.9404,43.9404,0,0,1,8.25-3.11A35.4,35.4,0,0,0,20.91,35.41c0,.69,0,1.37.06,2.06A25.3,25.3,0,0,0,25.3,87.69h4.07A35.13984,35.13984,0,0,1,29,82.63c0-1,.06-2,.15-3H25.3a17.20009,17.20009,0,0,1-.11-34.4l5.19.1-.91-4.88A27.34,27.34,0,0,1,56.33,8.09Zm76.89,42.5a29.00126,29.00126,0,0,0-3.36.2,35.42,35.42,0,0,0-70.5,4.86c0,.68,0,1.37.06,2.06a25.3,25.3,0,0,0,4.32,50.22h69.48a28.67,28.67,0,0,0,0-57.34Zm0,49.25H63.74a17.21,17.21,0,0,1-.1-34.41l5.19.11-.91-4.88a27.6492,27.6492,0,0,1-.47-5,27.3202,27.3202,0,1,1,54.64-.21v5.69l5.22-1.57a20.57,20.57,0,1,1,5.91,40.28Z" transform="translate(-0.0341 0.00035)"/></svg>