<svg xmlns="http://www.w3.org/2000/svg" width="121.4988" height="120.9572" viewBox="0 0 121.4988 120.9572"><path d="M93.27,29.87a27.79058,27.79058,0,0,0-3.29.19,34.87,34.87,0,0,0-69.4,4.8q0,1,.06,2a24.91,24.91,0,0,0,4.27,49.45v-8A16.91,16.91,0,0,1,24.8,44.5l5.12.08L29,39.79a26.86,26.86,0,1,1,53.3-5.08v5.57l5.15-1.55A20.22,20.22,0,0,1,105.63,74.1a12,12,0,0,1,2.8,7.09l.33.51A28.23,28.23,0,0,0,93.27,29.87Z" transform="translate(-0.00334 -0.04288)"/><path d="M96.46,77.83H82.37l7-12.21a4.00078,4.00078,0,1,0-6.93-4l-7,12.21-7.05-12.2a4.00078,4.00078,0,1,0-6.93,4l7.06,12.2H54.42a4,4,0,0,0,0,8h14.1l-7,12.21a4,4,0,0,0,1.45607,5.46625L63,103.52a3.9,3.9,0,0,0,2,.54,4,4,0,0,0,3.47-2l7-12.2,7,12.19A4,4,0,0,0,86,104a3.93,3.93,0,0,0,2-.54A4,4,0,0,0,89.43,98L82.37,85.8H96.46a4,4,0,0,0,0-8Z" transform="translate(-0.00334 -0.04288)"/><path d="M48.57,114.16l-5.13-5.13,5.12-5.12a4.00221,4.00221,0,1,0-5.66-5.66l-5.1184,5.12164L32.66,98.25A4.0022,4.0022,0,1,0,27,103.91l5.12018,5.12665L27,114.16a3.99874,3.99874,0,1,0,5.65,5.66l5.12323-5.12323L42.9,119.83a4.00931,4.00931,0,1,0,5.67-5.67Z" transform="translate(-0.00334 -0.04288)"/></svg>