<svg xmlns="http://www.w3.org/2000/svg" width="119.8536" height="119.8536" viewBox="0 0 119.8536 119.8536"><path d="M60.13,27.08A32.87,32.87,0,1,0,93,60,32.87,32.87,0,0,0,60.13,27.08Zm0,57.06A24.2,24.2,0,1,1,84.32008,59.93007q0,.035-.00008.06993A24.22,24.22,0,0,1,60.13,84.14Zm0-63.2a4.33,4.33,0,0,0,4.33-4.33V4.33a4.34,4.34,0,0,0-8.67,0V16.61a4.33,4.33,0,0,0,4.33,4.33Zm0,78.37a4.33,4.33,0,0,0-4.34,4.32v12.29a4.34,4.34,0,0,0,8.67,0V103.64A4.33,4.33,0,0,0,60.13,99.31ZM26.29,32.42a4.33456,4.33456,0,0,0,6.13-6.13h0l-8.68-8.68a4.33456,4.33456,0,1,0-6.13,6.13h0ZM94,87.83A4.36285,4.36285,0,1,0,87.83,94l8.68,8.68a4.33456,4.33456,0,1,0,6.13-6.13ZM21,60.13a4.33,4.33,0,0,0-4.32-4.34H4.33a4.34,4.34,0,0,0,0,8.67H16.61a4.33,4.33,0,0,0,4.33-4.33Zm95-4.34H103.64a4.34,4.34,0,0,0,0,8.67h12.28a4.34,4.34,0,0,0,0-8.67Zm-89.63,32-8.68,8.68a4.33457,4.33457,0,0,0,6.12354,6.13646L23.82,102.6l8.6-8.6a4.33456,4.33456,0,0,0-6.13-6.13h0Zm64.6-54.14A4.32,4.32,0,0,0,94,32.42l8.68-8.68a4.33456,4.33456,0,1,0-6.13-6.13h0l-8.68,8.68a4.34,4.34,0,0,0,3.06,7.4Z" transform="translate(-0.1982 -0.1982)"/></svg>