<svg xmlns="http://www.w3.org/2000/svg" width="123.56076" height="137.25523" viewBox="0 0 123.56076 137.25523"><path d="M73.05,81.49a4,4,0,0,0-3.55-2.1H45.12l14.3-21.93a4.04675,4.04675,0,1,0-6.78-4.42L34.24,81.27a4.06,4.06,0,0,0,3.39,6.26H62.12L34.45,131.07a4.04612,4.04612,0,0,0,6.83,4.34l31.63-49.8A4,4,0,0,0,73.05,81.49ZM94.78,30.36a27.09089,27.09089,0,0,0-3.37.2,35.42,35.42,0,0,0-70.5,4.86c0,.68,0,1.36.06,2A25.29,25.29,0,0,0,21,87.3l4.69-7.7H25.3a17.20008,17.20008,0,0,1-.1-34.4l5.2.21-.93-5a27.32,27.32,0,1,1,54.18-5v5.44l5.21-1.56A20.57,20.57,0,1,1,94.78,79.6H88.19l-4.8,8.1H94.78a28.67,28.67,0,0,0,0-57.34Z" transform="translate(0.11612 -0.0314)"/></svg>