<svg xmlns="http://www.w3.org/2000/svg" width="50" height="50" viewBox="0 0 50 50"><path d="M0,0V50H50V0ZM33.857,21.248c.012.181.012.36.012.553q.00054.08423,0,.16857A12.271,12.271,0,0,1,15.001,32.134a8.95555,8.95555,0,0,0,1.027.064,8.66315,8.66315,0,0,0,5.351-1.847,4.314,4.314,0,0,1-4.03-2.991,4.07648,4.07648,0,0,0,.809.077,4.18344,4.18344,0,0,0,1.142-.154,4.312,4.312,0,0,1-3.453-4.224v-.051a4.34832,4.34832,0,0,0,1.951.539,4.34309,4.34309,0,0,1-1.915-3.591,4.279,4.279,0,0,1,.577-2.169,12.361,12.361,0,0,0,8.883,4.518,4.22543,4.22543,0,0,1-.115-.989v-.005a4.3154,4.3154,0,0,1,7.46-2.951,9.15492,9.15492,0,0,0,2.734-1.051,4.33888,4.33888,0,0,1-1.9,2.387A8.41854,8.41854,0,0,0,36,19.016,8.44042,8.44042,0,0,1,33.857,21.248Z" style="fill:#fddc05"/></svg>