<svg xmlns="http://www.w3.org/2000/svg" width="165.70827" height="128.45999" viewBox="0 0 165.70827 128.45999"><path d="M19.56,56.16a4,4,0,0,0-4-4H4.05a4.05,4.05,0,1,0,0,8.1H15.51a4.05,4.05,0,0,0,4.05031-4.04969Zm36.6-36.6a4,4,0,0,0,4.04968-3.94969L60.21,15.56V4.05a4.05,4.05,0,0,0-8.1,0V15.52a4,4,0,0,0,3.95949,4.04011Q56.11474,19.56058,56.16,19.56ZM24.56,30.28a4.04465,4.04465,0,1,0,5.72-5.72h0l-8.11-8.11a4.04465,4.04465,0,0,0-5.72,5.72Zm0,51.76-8.11,8.1a4.04819,4.04819,0,1,0,5.72,5.73l8.11-8.11A4.05882,4.05882,0,1,0,24.56,82ZM84.9,31.47a4,4,0,0,0,2.86-1.19l8.11-8.1a4.04819,4.04819,0,0,0-5.72-5.73L82,24.56a4.05,4.05,0,0,0,2.86,6.91ZM45.9,76.1A22.59,22.59,0,1,1,72.15,40a45.17063,45.17063,0,0,1,7.08-4.25A30.68,30.68,0,1,0,40,82.08,35.00026,35.00026,0,0,1,45.9,76.1Zm91.15-4.93a27.20888,27.20888,0,0,0-3.37.2,35.41,35.41,0,0,0-70.49,4.86c0,.68,0,1.37.06,2a25.3,25.3,0,0,0,4.32,50.23h69.48a28.67,28.67,0,0,0,0-57.34Zm0,49.24H67.57a17.20007,17.20007,0,1,1-.1-34.4l5.18.11-.9-4.89a27.32,27.32,0,1,1,54.17-5.11V81.7l5.21-1.56a20.57,20.57,0,1,1,5.92,40.27Z" transform="translate(0 0)"/></svg>