<?xml version="1.0" encoding="UTF-8"?>
<svg xmlns="http://www.w3.org/2000/svg" xmlns:xlink="http://www.w3.org/1999/xlink" width="534.52pt" height="534.52pt" viewBox="0 0 534.52 534.52" version="1.1">
<defs>
<clipPath id="clip1">
  <path d="M 0 493 L 66 493 L 66 534.519531 L 0 534.519531 Z M 0 493 "/>
</clipPath>
<clipPath id="clip2">
  <path d="M 69 493 L 130 493 L 130 534.519531 L 69 534.519531 Z M 69 493 "/>
</clipPath>
<clipPath id="clip3">
  <path d="M 133 493 L 184 493 L 184 534.519531 L 133 534.519531 Z M 133 493 "/>
</clipPath>
<clipPath id="clip4">
  <path d="M 192 493 L 205 493 L 205 534.519531 L 192 534.519531 Z M 192 493 "/>
</clipPath>
<clipPath id="clip5">
  <path d="M 213 493 L 258 493 L 258 534.519531 L 213 534.519531 Z M 213 493 "/>
</clipPath>
<clipPath id="clip6">
  <path d="M 291 492 L 344 492 L 344 534.519531 L 291 534.519531 Z M 291 492 "/>
</clipPath>
<clipPath id="clip7">
  <path d="M 351 493 L 402 493 L 402 534.519531 L 351 534.519531 Z M 351 493 "/>
</clipPath>
<clipPath id="clip8">
  <path d="M 410 493 L 460 493 L 460 534.519531 L 410 534.519531 Z M 410 493 "/>
</clipPath>
<clipPath id="clip9">
  <path d="M 468 493 L 481 493 L 481 534.519531 L 468 534.519531 Z M 468 493 "/>
</clipPath>
<clipPath id="clip10">
  <path d="M 489 493 L 534 493 L 534 534.519531 L 489 534.519531 Z M 489 493 "/>
</clipPath>
<clipPath id="clip11">
  <path d="M 482 333 L 534.519531 333 L 534.519531 402 L 482 402 Z M 482 333 "/>
</clipPath>
<clipPath id="clip12">
  <path d="M 482 0 L 534.519531 0 L 534.519531 67 L 482 67 Z M 482 0 "/>
</clipPath>
</defs>
<g id="surface1">
<path style=" stroke:none;fill-rule:nonzero;fill:rgb(0%,61.999512%,88.999939%);fill-opacity:1;" d="M 233.425781 238.5625 L 466.773438 238.5625 L 466.773438 0.00390625 L 233.425781 0.00390625 Z M 233.425781 238.5625 "/>
<path style=" stroke:none;fill-rule:nonzero;fill:rgb(53.69873%,8.198547%,33.699036%);fill-opacity:1;" d="M 381.480469 101.925781 C 381.746094 105.421875 382.886719 106.585938 382.886719 106.585938 C 386.007813 108.640625 386.285156 110.972656 386.285156 110.972656 L 387.480469 106.996094 C 388.382813 105.300781 387.695313 99.230469 388.421875 93.9375 C 389.527344 85.878906 390.703125 82.199219 392.105469 79.636719 C 393.089844 77.851563 393.890625 76.113281 394.578125 74.441406 C 391.875 77.777344 387.84375 81.328125 381.882813 84.714844 L 380.144531 86.484375 C 381.546875 88.523438 381.246094 92.019531 381.246094 92.019531 C 380.375 96.09375 381.480469 101.925781 381.480469 101.925781 "/>
<path style=" stroke:none;fill-rule:nonzero;fill:rgb(53.69873%,8.198547%,33.699036%);fill-opacity:1;" d="M 306.910156 74.316406 C 292.972656 68.167969 307.140625 53.199219 307.140625 53.199219 C 299.339844 69.628906 306.910156 74.316406 306.910156 74.316406 M 406.867188 152.433594 C 405.792969 153.410156 404.6875 153.695313 403.714844 153.664063 C 402.113281 153.609375 400.886719 152.695313 400.886719 152.695313 C 398.621094 151.226563 388.664063 147.675781 388.664063 147.675781 C 396.328125 153.839844 374.902344 165.378906 374.902344 165.378906 C 368.671875 159.515625 369.023438 145.832031 369.023438 145.832031 C 353.3125 155.070313 347.050781 153.289063 347.050781 153.289063 C 333.089844 152.929688 342.234375 146.574219 342.234375 146.574219 L 348.523438 142.523438 C 353.660156 139.636719 347.105469 141.058594 347.105469 141.058594 C 340.578125 137.242188 352.011719 137.539063 352.011719 137.539063 C 356.851563 137.851563 356.640625 135.800781 356.640625 135.800781 C 356.941406 133.195313 353.277344 135.054688 353.277344 135.054688 C 351.003906 135.902344 348.269531 135.535156 348.269531 135.535156 C 347.140625 135.230469 342.015625 135.5 342.015625 135.5 C 338.308594 134.894531 343.15625 132.886719 343.15625 132.886719 C 344.011719 134.050781 345.160156 132.320313 345.160156 132.320313 C 345.738281 129.113281 348.03125 127.667969 348.03125 127.667969 C 355.464844 122.175781 345.472656 125.332031 345.472656 125.332031 C 338.644531 125.296875 340.101563 117.140625 340.101563 117.140625 L 341.300781 105.214844 C 342.199219 96.769531 348.433594 103.789063 348.433594 103.789063 L 350.6875 107.007813 C 354.949219 111.109375 360.945313 106.765625 360.945313 106.765625 C 362.097656 103.574219 366.097656 103.882813 366.097656 103.882813 L 368.941406 104.191406 C 375.214844 102.179688 368.394531 97.777344 368.394531 97.777344 C 359.308594 93.652344 352.1875 93.617188 352.1875 93.617188 C 345.921875 93.007813 341.917969 96.769531 341.917969 96.769531 C 335.671875 92.664063 329.386719 94.960938 329.386719 94.960938 C 321.984375 94.339844 326.554688 91.734375 326.554688 91.734375 C 330.550781 89.71875 327.183594 79.515625 327.183594 79.515625 C 322.382813 71.042969 330.675781 65.261719 330.675781 65.261719 C 335.824219 59.460938 352.882813 66.539063 352.882813 66.539063 C 354.597656 67.421875 361.132813 68.332031 361.132813 68.332031 C 363.136719 67.464844 369.394531 70.113281 369.394531 70.113281 C 377.636719 73.074219 380.460938 78.046875 380.460938 78.046875 C 381.464844 79.257813 382.109375 80.234375 382.523438 81.039063 C 387.171875 79.714844 392.070313 76.839844 395.796875 70.996094 C 401.074219 53.628906 390.8125 42.707031 384.6875 37.984375 C 382.324219 36.164063 377.367188 33.957031 377.367188 33.957031 C 371.730469 30.929688 368.648438 31.433594 363.839844 29.273438 C 359.023438 27.113281 355.707031 23.59375 349.414063 23.65625 C 337.203125 23.78125 322.078125 29.929688 319.652344 31.679688 C 319.265625 31.964844 314.339844 37.554688 314.339844 37.554688 L 312.871094 40.492188 C 310 42.398438 309.625 45.484375 307.558594 47.347656 C 305.898438 48.839844 301.8125 50.546875 300.605469 51.972656 C 295.582031 57.878906 294.246094 62.9375 294.375 65.507813 C 294.441406 66.828125 294.597656 67.59375 294.597656 67.59375 C 295.671875 72.773438 301.074219 77.027344 301.53125 82.234375 C 301.691406 84.101563 300.414063 86.09375 300.417969 88.058594 C 300.417969 91.859375 302.128906 94.035156 304.59375 96.578125 C 303.15625 99.773438 305.988281 102.113281 305.988281 102.113281 C 306.445313 102.882813 306.835938 103.632813 307.175781 104.351563 C 309.523438 109.414063 309.066406 113.199219 309.066406 113.199219 C 308.40625 117.339844 312.070313 121.84375 313.941406 123.832031 C 314.570313 124.496094 315 124.878906 315 124.878906 L 316.679688 128.964844 C 319.539063 143.992188 327.210938 149.835938 328.164063 150.507813 C 328.222656 150.558594 328.257813 150.574219 328.257813 150.574219 C 328.753906 150.941406 329.234375 151.289063 329.683594 151.605469 C 332.835938 153.851563 334.796875 154.976563 334.796875 154.976563 C 339.339844 157.625 337.441406 161.339844 337.441406 161.339844 C 336.804688 166.875 313.539063 171.34375 311.324219 172.640625 C 295.761719 181.707031 292.425781 196.398438 292.425781 196.398438 C 291.464844 203.265625 287.011719 213.078125 285.371094 216.519531 C 285.359375 216.535156 285.355469 216.554688 285.347656 216.574219 C 307.472656 211.675781 330.945313 204.671875 354.882813 195.535156 C 365.558594 191.464844 375.875 187.113281 385.8125 182.570313 L 401.535156 175.035156 C 413.320313 170.246094 423.023438 165.609375 433.523438 159.75 C 425.265625 154.210938 406.867188 152.433594 406.867188 152.433594 "/>
<path style=" stroke:none;fill-rule:nonzero;fill:rgb(90.19928%,21.598816%,54.899597%);fill-opacity:1;" d="M 0.078125 238.5625 L 233.425781 238.5625 L 233.425781 0.00390625 L 0.078125 0.00390625 Z M 0.078125 238.5625 "/>
<path style=" stroke:none;fill-rule:nonzero;fill:rgb(33.299255%,68.598938%,19.198608%);fill-opacity:1;" d="M 148.132813 101.925781 C 148.402344 105.421875 149.539063 106.585938 149.539063 106.585938 C 152.660156 108.640625 152.933594 110.972656 152.933594 110.972656 L 154.140625 106.996094 C 155.035156 105.300781 154.347656 99.230469 155.074219 93.9375 C 156.183594 85.878906 157.355469 82.199219 158.757813 79.636719 C 159.738281 77.851563 160.546875 76.113281 161.226563 74.441406 C 158.527344 77.777344 154.503906 81.328125 148.535156 84.714844 L 146.796875 86.484375 C 148.199219 88.523438 147.898438 92.019531 147.898438 92.019531 C 147.027344 96.09375 148.132813 101.925781 148.132813 101.925781 "/>
<path style=" stroke:none;fill-rule:nonzero;fill:rgb(33.299255%,68.598938%,19.198608%);fill-opacity:1;" d="M 73.5625 74.316406 C 59.621094 68.167969 73.796875 53.199219 73.796875 53.199219 C 65.992188 69.628906 73.5625 74.316406 73.5625 74.316406 M 173.519531 152.433594 C 172.449219 153.410156 171.34375 153.695313 170.371094 153.664063 C 168.765625 153.609375 167.539063 152.695313 167.539063 152.695313 C 165.269531 151.226563 155.316406 147.675781 155.316406 147.675781 C 162.980469 153.839844 141.554688 165.378906 141.554688 165.378906 C 135.324219 159.515625 135.675781 145.832031 135.675781 145.832031 C 119.964844 155.070313 113.703125 153.289063 113.703125 153.289063 C 99.738281 152.929688 108.890625 146.574219 108.890625 146.574219 L 115.175781 142.523438 C 120.3125 139.636719 113.761719 141.058594 113.761719 141.058594 C 107.230469 137.242188 118.664063 137.539063 118.664063 137.539063 C 123.503906 137.851563 123.289063 135.800781 123.289063 135.800781 C 123.59375 133.195313 119.929688 135.054688 119.929688 135.054688 C 117.65625 135.902344 114.925781 135.535156 114.925781 135.535156 C 113.792969 135.230469 108.667969 135.5 108.667969 135.5 C 104.960938 134.894531 109.8125 132.886719 109.8125 132.886719 C 110.664063 134.050781 111.816406 132.320313 111.816406 132.320313 C 112.394531 129.113281 114.683594 127.667969 114.683594 127.667969 C 122.117188 122.175781 112.125 125.332031 112.125 125.332031 C 105.296875 125.296875 106.753906 117.140625 106.753906 117.140625 L 107.953125 105.214844 C 108.855469 96.769531 115.082031 103.789063 115.082031 103.789063 L 117.34375 107.007813 C 121.601563 111.109375 127.597656 106.765625 127.597656 106.765625 C 128.746094 103.574219 132.75 103.882813 132.75 103.882813 L 135.589844 104.191406 C 141.871094 102.179688 135.046875 97.777344 135.046875 97.777344 C 125.957031 93.652344 118.835938 93.617188 118.835938 93.617188 C 112.570313 93.007813 108.566406 96.769531 108.566406 96.769531 C 102.328125 92.664063 96.039063 94.960938 96.039063 94.960938 C 88.636719 94.339844 93.207031 91.734375 93.207031 91.734375 C 97.207031 89.71875 93.835938 79.515625 93.835938 79.515625 C 89.035156 71.042969 97.328125 65.261719 97.328125 65.261719 C 102.480469 59.460938 119.539063 66.539063 119.539063 66.539063 C 121.246094 67.421875 127.785156 68.332031 127.785156 68.332031 C 129.789063 67.464844 136.050781 70.113281 136.050781 70.113281 C 144.289063 73.074219 147.117188 78.046875 147.117188 78.046875 C 148.117188 79.257813 148.761719 80.234375 149.175781 81.039063 C 153.824219 79.714844 158.71875 76.839844 162.449219 70.996094 C 167.730469 53.628906 157.464844 42.707031 151.34375 37.984375 C 148.980469 36.164063 144.019531 33.957031 144.019531 33.957031 C 138.382813 30.929688 135.300781 31.433594 130.492188 29.273438 C 125.679688 27.113281 122.359375 23.59375 116.066406 23.65625 C 103.855469 23.78125 88.726563 29.929688 86.300781 31.679688 C 85.917969 31.964844 80.988281 37.554688 80.988281 37.554688 L 79.527344 40.492188 C 76.65625 42.398438 76.277344 45.484375 74.207031 47.347656 C 72.546875 48.839844 68.464844 50.546875 67.261719 51.972656 C 62.238281 57.878906 60.902344 62.9375 61.03125 65.507813 C 61.09375 66.828125 61.253906 67.59375 61.253906 67.59375 C 62.324219 72.773438 67.730469 77.027344 68.183594 82.234375 C 68.347656 84.101563 67.070313 86.09375 67.070313 88.058594 C 67.070313 91.859375 68.785156 94.035156 71.246094 96.578125 C 69.808594 99.773438 72.644531 102.113281 72.644531 102.113281 C 73.101563 102.882813 73.492188 103.632813 73.832031 104.351563 C 76.175781 109.414063 75.722656 113.199219 75.722656 113.199219 C 75.058594 117.339844 78.722656 121.84375 80.597656 123.832031 C 81.222656 124.496094 81.648438 124.878906 81.648438 124.878906 L 83.332031 128.964844 C 86.195313 143.992188 93.867188 149.835938 94.816406 150.507813 C 94.875 150.558594 94.910156 150.574219 94.910156 150.574219 C 95.40625 150.941406 95.882813 151.289063 96.335938 151.605469 C 99.488281 153.851563 101.445313 154.976563 101.445313 154.976563 C 105.992188 157.625 104.089844 161.339844 104.089844 161.339844 C 103.460938 166.875 80.195313 171.34375 77.972656 172.640625 C 62.417969 181.707031 59.078125 196.398438 59.078125 196.398438 C 58.117188 203.265625 53.664063 213.078125 52.023438 216.519531 C 52.015625 216.535156 52.011719 216.554688 52.003906 216.574219 C 74.125 211.675781 97.601563 204.671875 121.53125 195.535156 C 132.210938 191.464844 142.527344 187.113281 152.46875 182.570313 L 168.1875 175.035156 C 179.972656 170.246094 189.679688 165.609375 200.179688 159.75 C 191.921875 154.210938 173.519531 152.433594 173.519531 152.433594 "/>
<path style=" stroke:none;fill-rule:nonzero;fill:rgb(90.19928%,21.998596%,14.898682%);fill-opacity:1;" d="M 233.425781 477.125 L 466.773438 477.125 L 466.773438 238.558594 L 233.425781 238.558594 Z M 233.425781 477.125 "/>
<path style=" stroke:none;fill-rule:nonzero;fill:rgb(100%,92.89856%,0%);fill-opacity:1;" d="M 381.480469 340.488281 C 381.746094 343.976563 382.886719 345.148438 382.886719 345.148438 C 386.007813 347.203125 386.285156 349.535156 386.285156 349.535156 L 387.480469 345.554688 C 388.382813 343.859375 387.695313 337.792969 388.421875 332.5 C 389.527344 324.4375 390.703125 320.765625 392.105469 318.199219 C 393.089844 316.40625 393.890625 314.675781 394.578125 312.996094 C 391.875 316.339844 387.84375 319.882813 381.882813 323.273438 L 380.144531 325.050781 C 381.546875 327.082031 381.246094 330.585938 381.246094 330.585938 C 380.375 334.652344 381.480469 340.488281 381.480469 340.488281 "/>
<path style=" stroke:none;fill-rule:nonzero;fill:rgb(100%,92.89856%,0%);fill-opacity:1;" d="M 306.910156 312.878906 C 292.972656 306.726563 307.140625 291.761719 307.140625 291.761719 C 299.339844 308.191406 306.910156 312.878906 306.910156 312.878906 M 406.867188 390.988281 C 405.792969 391.96875 404.6875 392.257813 403.714844 392.222656 C 402.113281 392.175781 400.886719 391.253906 400.886719 391.253906 C 398.621094 389.789063 388.664063 386.238281 388.664063 386.238281 C 396.328125 392.398438 374.902344 403.9375 374.902344 403.9375 C 368.671875 398.074219 369.023438 384.386719 369.023438 384.386719 C 353.3125 393.628906 347.050781 391.855469 347.050781 391.855469 C 333.089844 391.492188 342.234375 385.132813 342.234375 385.132813 L 348.523438 381.089844 C 353.660156 378.195313 347.105469 379.617188 347.105469 379.617188 C 340.578125 375.804688 352.011719 376.097656 352.011719 376.097656 C 356.851563 376.410156 356.640625 374.363281 356.640625 374.363281 C 356.941406 371.75 353.277344 373.617188 353.277344 373.617188 C 351.003906 374.460938 348.269531 374.09375 348.269531 374.09375 C 347.140625 373.785156 342.015625 374.058594 342.015625 374.058594 C 338.308594 373.453125 343.15625 371.445313 343.15625 371.445313 C 344.011719 372.613281 345.160156 370.882813 345.160156 370.882813 C 345.738281 367.675781 348.03125 366.230469 348.03125 366.230469 C 355.464844 360.738281 345.472656 363.894531 345.472656 363.894531 C 338.644531 363.855469 340.101563 355.703125 340.101563 355.703125 L 341.300781 343.773438 C 342.199219 335.328125 348.433594 342.351563 348.433594 342.351563 L 350.6875 345.566406 C 354.949219 349.664063 360.945313 345.328125 360.945313 345.328125 C 362.097656 342.132813 366.097656 342.441406 366.097656 342.441406 L 368.941406 342.75 C 375.214844 340.738281 368.394531 336.339844 368.394531 336.339844 C 359.308594 332.214844 352.1875 332.183594 352.1875 332.183594 C 345.921875 331.558594 341.917969 335.328125 341.917969 335.328125 C 335.671875 331.226563 329.386719 333.519531 329.386719 333.519531 C 321.984375 332.898438 326.554688 330.296875 326.554688 330.296875 C 330.550781 328.285156 327.183594 318.078125 327.183594 318.078125 C 322.382813 309.605469 330.675781 303.824219 330.675781 303.824219 C 335.824219 298.023438 352.882813 305.101563 352.882813 305.101563 C 354.597656 305.980469 361.132813 306.890625 361.132813 306.890625 C 363.136719 306.027344 369.394531 308.675781 369.394531 308.675781 C 377.636719 311.632813 380.460938 316.605469 380.460938 316.605469 C 381.464844 317.820313 382.109375 318.792969 382.523438 319.59375 C 387.171875 318.273438 392.070313 315.398438 395.796875 309.554688 C 401.074219 292.1875 390.8125 281.269531 384.6875 276.539063 C 382.324219 274.722656 377.367188 272.511719 377.367188 272.511719 C 371.730469 269.484375 368.648438 269.992188 363.839844 267.832031 C 359.023438 265.675781 355.707031 262.152344 349.414063 262.214844 C 337.203125 262.339844 322.078125 268.488281 319.652344 270.238281 C 319.265625 270.523438 314.339844 276.109375 314.339844 276.109375 L 312.871094 279.054688 C 310 280.957031 309.625 284.042969 307.558594 285.90625 C 305.898438 287.394531 301.8125 289.105469 300.605469 290.523438 C 295.582031 296.4375 294.246094 301.5 294.375 304.070313 C 294.441406 305.386719 294.597656 306.148438 294.597656 306.148438 C 295.671875 311.324219 301.074219 315.585938 301.53125 320.800781 C 301.691406 322.664063 300.414063 324.652344 300.417969 326.625 C 300.417969 330.421875 302.128906 332.601563 304.59375 335.140625 C 303.15625 338.335938 305.988281 340.679688 305.988281 340.679688 C 306.445313 341.441406 306.835938 342.1875 307.175781 342.914063 C 309.523438 347.976563 309.066406 351.753906 309.066406 351.753906 C 308.40625 355.898438 312.070313 360.398438 313.941406 362.386719 C 314.570313 363.054688 315 363.441406 315 363.441406 L 316.679688 367.523438 C 319.539063 382.550781 327.210938 388.394531 328.164063 389.066406 C 328.222656 389.117188 328.257813 389.132813 328.257813 389.132813 C 328.753906 389.503906 329.234375 389.851563 329.683594 390.171875 C 332.835938 392.414063 334.796875 393.539063 334.796875 393.539063 C 339.339844 396.1875 337.441406 399.902344 337.441406 399.902344 C 336.804688 405.429688 313.539063 409.902344 311.324219 411.199219 C 295.761719 420.265625 292.425781 434.960938 292.425781 434.960938 C 291.464844 441.820313 287.011719 451.636719 285.371094 455.078125 C 285.359375 455.09375 285.355469 455.109375 285.347656 455.132813 C 307.472656 450.230469 330.945313 443.230469 354.882813 434.097656 C 365.558594 430.023438 375.875 425.675781 385.8125 421.128906 L 401.535156 413.589844 C 413.320313 408.808594 423.023438 404.175781 433.523438 398.304688 C 425.265625 392.769531 406.867188 390.988281 406.867188 390.988281 "/>
<path style=" stroke:none;fill-rule:nonzero;fill:rgb(5.899048%,65.098572%,28.999329%);fill-opacity:1;" d="M 0.078125 477.125 L 233.425781 477.125 L 233.425781 238.558594 L 0.078125 238.558594 Z M 0.078125 477.125 "/>
<path style=" stroke:none;fill-rule:nonzero;fill:rgb(20.799255%,14.898682%,51.399231%);fill-opacity:1;" d="M 148.132813 340.488281 C 148.402344 343.976563 149.539063 345.148438 149.539063 345.148438 C 152.660156 347.203125 152.933594 349.535156 152.933594 349.535156 L 154.140625 345.554688 C 155.035156 343.859375 154.347656 337.792969 155.074219 332.5 C 156.183594 324.4375 157.355469 320.765625 158.757813 318.199219 C 159.738281 316.40625 160.546875 314.675781 161.226563 312.996094 C 158.527344 316.339844 154.503906 319.882813 148.535156 323.273438 L 146.796875 325.050781 C 148.199219 327.082031 147.898438 330.585938 147.898438 330.585938 C 147.027344 334.652344 148.132813 340.488281 148.132813 340.488281 "/>
<path style=" stroke:none;fill-rule:nonzero;fill:rgb(20.799255%,14.898682%,51.399231%);fill-opacity:1;" d="M 73.5625 312.878906 C 59.621094 306.726563 73.796875 291.761719 73.796875 291.761719 C 65.992188 308.191406 73.5625 312.878906 73.5625 312.878906 M 173.519531 390.988281 C 172.449219 391.96875 171.34375 392.257813 170.371094 392.222656 C 168.765625 392.175781 167.539063 391.253906 167.539063 391.253906 C 165.269531 389.789063 155.316406 386.238281 155.316406 386.238281 C 162.980469 392.398438 141.554688 403.9375 141.554688 403.9375 C 135.324219 398.074219 135.675781 384.386719 135.675781 384.386719 C 119.964844 393.628906 113.703125 391.855469 113.703125 391.855469 C 99.738281 391.492188 108.890625 385.132813 108.890625 385.132813 L 115.175781 381.089844 C 120.3125 378.195313 113.761719 379.617188 113.761719 379.617188 C 107.230469 375.804688 118.664063 376.097656 118.664063 376.097656 C 123.503906 376.410156 123.289063 374.363281 123.289063 374.363281 C 123.59375 371.75 119.929688 373.617188 119.929688 373.617188 C 117.65625 374.460938 114.925781 374.09375 114.925781 374.09375 C 113.792969 373.785156 108.667969 374.058594 108.667969 374.058594 C 104.960938 373.453125 109.8125 371.445313 109.8125 371.445313 C 110.664063 372.613281 111.816406 370.882813 111.816406 370.882813 C 112.394531 367.675781 114.683594 366.230469 114.683594 366.230469 C 122.117188 360.738281 112.125 363.894531 112.125 363.894531 C 105.296875 363.855469 106.753906 355.703125 106.753906 355.703125 L 107.953125 343.773438 C 108.855469 335.328125 115.082031 342.351563 115.082031 342.351563 L 117.34375 345.566406 C 121.601563 349.664063 127.597656 345.328125 127.597656 345.328125 C 128.746094 342.132813 132.75 342.441406 132.75 342.441406 L 135.589844 342.75 C 141.871094 340.738281 135.046875 336.339844 135.046875 336.339844 C 125.957031 332.214844 118.835938 332.183594 118.835938 332.183594 C 112.570313 331.558594 108.566406 335.328125 108.566406 335.328125 C 102.328125 331.226563 96.039063 333.519531 96.039063 333.519531 C 88.636719 332.898438 93.207031 330.296875 93.207031 330.296875 C 97.207031 328.285156 93.835938 318.078125 93.835938 318.078125 C 89.035156 309.605469 97.328125 303.824219 97.328125 303.824219 C 102.480469 298.023438 119.539063 305.101563 119.539063 305.101563 C 121.246094 305.980469 127.785156 306.890625 127.785156 306.890625 C 129.789063 306.027344 136.050781 308.675781 136.050781 308.675781 C 144.289063 311.632813 147.117188 316.605469 147.117188 316.605469 C 148.117188 317.820313 148.761719 318.792969 149.175781 319.59375 C 153.824219 318.273438 158.71875 315.398438 162.449219 309.554688 C 167.730469 292.1875 157.464844 281.269531 151.34375 276.539063 C 148.980469 274.722656 144.019531 272.511719 144.019531 272.511719 C 138.382813 269.484375 135.300781 269.992188 130.492188 267.832031 C 125.679688 265.675781 122.359375 262.152344 116.066406 262.214844 C 103.855469 262.339844 88.726563 268.488281 86.300781 270.238281 C 85.917969 270.523438 80.988281 276.109375 80.988281 276.109375 L 79.527344 279.054688 C 76.65625 280.957031 76.277344 284.042969 74.207031 285.90625 C 72.546875 287.394531 68.464844 289.105469 67.261719 290.523438 C 62.238281 296.4375 60.902344 301.5 61.03125 304.070313 C 61.09375 305.386719 61.253906 306.148438 61.253906 306.148438 C 62.324219 311.324219 67.730469 315.585938 68.183594 320.800781 C 68.347656 322.664063 67.070313 324.652344 67.070313 326.625 C 67.070313 330.421875 68.785156 332.601563 71.246094 335.140625 C 69.808594 338.335938 72.644531 340.679688 72.644531 340.679688 C 73.101563 341.441406 73.492188 342.1875 73.832031 342.914063 C 76.175781 347.976563 75.722656 351.753906 75.722656 351.753906 C 75.058594 355.898438 78.722656 360.398438 80.597656 362.386719 C 81.222656 363.054688 81.648438 363.441406 81.648438 363.441406 L 83.332031 367.523438 C 86.195313 382.550781 93.867188 388.394531 94.816406 389.066406 C 94.875 389.117188 94.910156 389.132813 94.910156 389.132813 C 95.40625 389.503906 95.882813 389.851563 96.335938 390.171875 C 99.488281 392.414063 101.445313 393.539063 101.445313 393.539063 C 105.992188 396.1875 104.089844 399.902344 104.089844 399.902344 C 103.460938 405.429688 80.195313 409.902344 77.972656 411.199219 C 62.417969 420.265625 59.078125 434.960938 59.078125 434.960938 C 58.117188 441.820313 53.664063 451.636719 52.023438 455.078125 C 52.015625 455.09375 52.011719 455.109375 52.003906 455.132813 C 74.125 450.230469 97.601563 443.230469 121.53125 434.097656 C 132.210938 430.023438 142.527344 425.675781 152.46875 421.128906 L 168.1875 413.589844 C 179.972656 408.808594 189.679688 404.175781 200.179688 398.304688 C 191.921875 392.769531 173.519531 390.988281 173.519531 390.988281 "/>
<g clip-path="url(#clip1)" clip-rule="nonzero">
<path style=" stroke:none;fill-rule:nonzero;fill:rgb(10.998535%,10.998535%,10.598755%);fill-opacity:1;" d="M 0 493.113281 L 18.867188 493.113281 L 32.757813 519.472656 L 46.644531 493.113281 L 65.511719 493.113281 L 65.511719 534.066406 L 53.5625 534.066406 L 53.5625 504.65625 L 53.449219 504.65625 L 37.347656 534.066406 L 28.164063 534.066406 L 12.0625 504.65625 L 11.953125 504.65625 L 11.953125 534.066406 L 0 534.066406 "/>
</g>
<g clip-path="url(#clip2)" clip-rule="nonzero">
<path style=" stroke:none;fill-rule:nonzero;fill:rgb(10.998535%,10.998535%,10.598755%);fill-opacity:1;" d="M 91.804688 517.996094 L 107.519531 517.996094 L 99.554688 502.613281 Z M 91.585938 493.113281 L 107.574219 493.113281 L 129.597656 534.066406 L 115.929688 534.066406 L 112.113281 526.828125 L 87.214844 526.828125 L 83.621094 534.066406 L 69.894531 534.066406 "/>
</g>
<g clip-path="url(#clip3)" clip-rule="nonzero">
<path style=" stroke:none;fill-rule:nonzero;fill:rgb(10.998535%,10.998535%,10.598755%);fill-opacity:1;" d="M 146.261719 513.25 L 166.570313 513.25 C 169.890625 513.25 171.101563 511.894531 171.101563 508.949219 L 171.101563 507.59375 C 171.101563 503.96875 169.335938 503.292969 165.464844 503.292969 L 146.261719 503.292969 Z M 133.976563 493.113281 L 171.050781 493.113281 C 180.511719 493.113281 183.058594 497.921875 183.058594 505.277344 L 183.058594 507.871094 C 183.058594 513.367188 181.839844 516.585938 176.195313 517.945313 L 176.195313 518.054688 C 179.847656 518.738281 182.890625 520.371094 182.890625 527.109375 L 182.890625 534.066406 L 170.609375 534.066406 L 170.609375 529.144531 C 170.609375 524.84375 169.390625 523.429688 165.574219 523.429688 L 146.261719 523.429688 L 146.261719 534.066406 L 133.976563 534.066406 "/>
</g>
<g clip-path="url(#clip4)" clip-rule="nonzero">
<path style=" stroke:none;fill-rule:nonzero;fill:rgb(10.998535%,10.998535%,10.598755%);fill-opacity:1;" d="M 192.027344 534.066406 L 204.3125 534.066406 L 204.3125 493.113281 L 192.027344 493.113281 Z M 192.027344 534.066406 "/>
</g>
<g clip-path="url(#clip5)" clip-rule="nonzero">
<path style=" stroke:none;fill-rule:nonzero;fill:rgb(10.998535%,10.998535%,10.598755%);fill-opacity:1;" d="M 213.277344 493.113281 L 257.101563 493.113281 L 257.101563 502.613281 L 225.5625 502.613281 L 225.5625 509.175781 L 255.441406 509.175781 L 255.441406 517.664063 L 225.5625 517.664063 L 225.5625 524.226563 L 257.820313 524.226563 L 257.820313 534.066406 L 213.277344 534.066406 "/>
</g>
<g clip-path="url(#clip6)" clip-rule="nonzero">
<path style=" stroke:none;fill-rule:nonzero;fill:rgb(10.998535%,10.998535%,10.598755%);fill-opacity:1;" d="M 291.691406 507.480469 C 291.691406 495.492188 298.273438 492.664063 309.34375 492.664063 L 323.78125 492.664063 C 341.269531 492.664063 343.535156 496.507813 343.425781 508.105469 L 331.140625 508.105469 L 331.140625 506.972656 C 331.140625 504.027344 329.039063 503.183594 325.390625 503.183594 L 312 503.183594 C 305.527344 503.183594 304.300781 506.292969 304.300781 511.386719 L 304.300781 515.796875 C 304.300781 521.730469 305.527344 524 311.335938 524 L 324.453125 524 C 329.984375 524 331.640625 523.429688 331.640625 518.339844 L 343.921875 518.339844 L 343.921875 522.183594 C 343.921875 529.085938 341.492188 534.519531 329.152344 534.519531 L 309.34375 534.519531 C 298.273438 534.519531 291.691406 531.691406 291.691406 519.699219 "/>
</g>
<g clip-path="url(#clip7)" clip-rule="nonzero">
<path style=" stroke:none;fill-rule:nonzero;fill:rgb(10.998535%,10.998535%,10.598755%);fill-opacity:1;" d="M 351.347656 493.113281 L 363.636719 493.113281 L 363.636719 516.761719 C 363.636719 521.960938 365.460938 523.996094 370.492188 523.996094 L 382.664063 523.996094 C 387.699219 523.996094 389.527344 521.960938 389.527344 516.761719 L 389.527344 493.113281 L 401.8125 493.113281 L 401.8125 519.472656 C 401.8125 529.652344 396.664063 534.519531 385.378906 534.519531 L 367.78125 534.519531 C 356.496094 534.519531 351.347656 529.652344 351.347656 519.472656 "/>
</g>
<g clip-path="url(#clip8)" clip-rule="nonzero">
<path style=" stroke:none;fill-rule:nonzero;fill:rgb(10.998535%,10.998535%,10.598755%);fill-opacity:1;" d="M 422.398438 513.25 L 442.703125 513.25 C 446.027344 513.25 447.242188 511.894531 447.242188 508.949219 L 447.242188 507.59375 C 447.242188 503.96875 445.46875 503.292969 441.601563 503.292969 L 422.398438 503.292969 Z M 410.113281 493.113281 L 447.191406 493.113281 C 456.65625 493.113281 459.195313 497.921875 459.195313 505.277344 L 459.195313 507.871094 C 459.195313 513.367188 457.980469 516.585938 452.335938 517.945313 L 452.335938 518.054688 C 455.984375 518.738281 459.027344 520.371094 459.027344 527.109375 L 459.027344 534.066406 L 446.75 534.066406 L 446.75 529.144531 C 446.75 524.84375 445.523438 523.429688 441.710938 523.429688 L 422.398438 523.429688 L 422.398438 534.066406 L 410.113281 534.066406 "/>
</g>
<g clip-path="url(#clip9)" clip-rule="nonzero">
<path style=" stroke:none;fill-rule:nonzero;fill:rgb(10.998535%,10.998535%,10.598755%);fill-opacity:1;" d="M 468.164063 534.066406 L 480.449219 534.066406 L 480.449219 493.113281 L 468.164063 493.113281 Z M 468.164063 534.066406 "/>
</g>
<g clip-path="url(#clip10)" clip-rule="nonzero">
<path style=" stroke:none;fill-rule:nonzero;fill:rgb(10.998535%,10.998535%,10.598755%);fill-opacity:1;" d="M 489.417969 493.113281 L 533.242188 493.113281 L 533.242188 502.613281 L 501.707031 502.613281 L 501.707031 509.175781 L 531.578125 509.175781 L 531.578125 517.664063 L 501.707031 517.664063 L 501.707031 524.226563 L 533.960938 524.226563 L 533.960938 534.066406 L 489.417969 534.066406 "/>
</g>
<path style=" stroke:none;fill-rule:nonzero;fill:rgb(10.998535%,10.998535%,10.598755%);fill-opacity:1;" d="M 513.867188 452.75 L 513.867188 432.214844 L 494.628906 442.628906 Z M 482.75 453.042969 L 482.75 432.148438 L 533.949219 403.367188 L 533.949219 421.222656 L 524.894531 426.214844 L 524.894531 458.753906 L 533.949219 463.453125 L 533.949219 481.378906 "/>
<g clip-path="url(#clip11)" clip-rule="nonzero">
<path style=" stroke:none;fill-rule:nonzero;fill:rgb(10.998535%,10.998535%,10.598755%);fill-opacity:1;" d="M 500.714844 401.488281 C 485.722656 401.488281 482.183594 392.886719 482.183594 378.425781 L 482.183594 359.554688 C 482.183594 336.710938 486.992188 333.75 501.488281 333.894531 L 501.488281 349.9375 L 500.078125 349.9375 C 496.398438 349.9375 495.339844 352.6875 495.339844 357.457031 L 495.339844 374.957031 C 495.339844 383.414063 499.226563 385.007813 505.59375 385.007813 L 511.109375 385.007813 C 518.535156 385.007813 521.359375 383.414063 521.359375 375.820313 L 521.359375 358.691406 C 521.359375 351.460938 520.65625 349.289063 514.292969 349.289063 L 514.292969 333.234375 L 519.101563 333.234375 C 527.726563 333.234375 534.515625 336.421875 534.515625 352.546875 L 534.515625 378.425781 C 534.515625 392.886719 530.984375 401.488281 515.988281 401.488281 "/>
</g>
<path style=" stroke:none;fill-rule:nonzero;fill:rgb(10.998535%,10.998535%,10.598755%);fill-opacity:1;" d="M 482.75 327.371094 L 482.75 266.207031 L 495.480469 266.207031 L 495.480469 288.765625 L 533.949219 288.765625 L 533.949219 304.808594 L 495.480469 304.808594 L 495.480469 327.371094 "/>
<path style=" stroke:none;fill-rule:nonzero;fill:rgb(10.998535%,10.998535%,10.598755%);fill-opacity:1;" d="M 482.75 258.316406 L 533.949219 258.316406 L 533.949219 242.261719 L 482.75 242.261719 Z M 482.75 258.316406 "/>
<path style=" stroke:none;fill-rule:nonzero;fill:rgb(10.998535%,10.998535%,10.598755%);fill-opacity:1;" d="M 482.75 144.765625 L 482.75 119.898438 L 519.945313 89.746094 L 519.945313 89.601563 L 482.75 89.601563 L 482.75 73.554688 L 533.949219 73.554688 L 533.949219 98.425781 L 496.753906 128.574219 L 496.753906 128.714844 L 533.949219 128.714844 L 533.949219 144.765625 "/>
<g clip-path="url(#clip12)" clip-rule="nonzero">
<path style=" stroke:none;fill-rule:nonzero;fill:rgb(10.998535%,10.998535%,10.598755%);fill-opacity:1;" d="M 517.195313 66.316406 L 517.195313 50.273438 C 522.636719 50.195313 523.0625 47.957031 523.0625 43.332031 L 523.0625 23.664063 C 523.0625 20.269531 522.703125 16.796875 518.746094 16.796875 C 514.292969 16.796875 514.007813 18.675781 514.007813 39.351563 C 514.007813 63.5 511.183594 66.246094 498.59375 66.246094 C 489.328125 66.246094 482.183594 65.378906 482.183594 45.136719 L 482.183594 22.726563 C 482.183594 4.214844 488.335938 2.484375 497.316406 2.484375 L 498.945313 2.484375 L 498.945313 18.53125 C 495.195313 18.53125 493.644531 18.964844 493.644531 26.339844 L 493.644531 44.125 C 493.644531 47.738281 494.84375 50.195313 497.605469 50.195313 C 502.058594 50.195313 502.195313 48.242188 502.132813 31.039063 C 502.058594 6.097656 503.542969 0.3125 518.464844 0.3125 C 532.253906 0.3125 534.515625 5.085938 534.515625 26.414063 L 534.515625 45.859375 C 534.515625 60.464844 531.824219 66.316406 520.722656 66.316406 "/>
</g>
<path style=" stroke:none;fill-rule:nonzero;fill:rgb(7.798767%,25.498962%,57.998657%);fill-opacity:1;" d="M 483.082031 233.730469 L 533.703125 233.730469 L 533.703125 154.988281 L 483.082031 154.988281 Z M 483.082031 233.730469 "/>
<path style=" stroke:none;fill-rule:nonzero;fill:rgb(100%,92.89856%,0%);fill-opacity:1;" d="M 488.4375 194.40625 L 490.460938 193.761719 L 490.445313 191.636719 L 491.683594 193.359375 L 493.691406 192.691406 L 492.445313 194.40625 L 493.691406 196.125 L 491.6875 195.457031 L 490.445313 197.183594 L 490.460938 195.054688 "/>
<path style=" stroke:none;fill-rule:nonzero;fill:rgb(100%,92.89856%,0%);fill-opacity:1;" d="M 523.300781 194.40625 L 525.3125 193.761719 L 525.304688 191.636719 L 526.542969 193.359375 L 528.554688 192.691406 L 527.300781 194.40625 L 528.554688 196.125 L 526.542969 195.457031 L 525.304688 197.183594 L 525.3125 195.054688 "/>
<path style=" stroke:none;fill-rule:nonzero;fill:rgb(100%,92.89856%,0%);fill-opacity:1;" d="M 490.757813 203.117188 L 492.777344 202.46875 L 492.769531 200.34375 L 494.003906 202.066406 L 496.011719 201.402344 L 494.761719 203.117188 L 496.011719 204.828125 L 494.003906 204.164063 L 492.769531 205.890625 L 492.777344 203.761719 "/>
<path style=" stroke:none;fill-rule:nonzero;fill:rgb(100%,92.89856%,0%);fill-opacity:1;" d="M 497.15625 209.53125 L 499.171875 208.878906 L 499.160156 206.753906 L 500.398438 208.480469 L 502.40625 207.816406 L 501.15625 209.53125 L 502.40625 211.238281 L 500.398438 210.578125 L 499.160156 212.300781 L 499.171875 210.175781 "/>
<path style=" stroke:none;fill-rule:nonzero;fill:rgb(100%,92.89856%,0%);fill-opacity:1;" d="M 505.84375 211.894531 L 507.867188 211.242188 L 507.855469 209.117188 L 509.09375 210.84375 L 511.101563 210.175781 L 509.851563 211.894531 L 511.101563 213.605469 L 509.09375 212.941406 L 507.855469 214.664063 L 507.867188 212.539063 "/>
<path style=" stroke:none;fill-rule:nonzero;fill:rgb(100%,92.89856%,0%);fill-opacity:1;" d="M 514.546875 209.554688 L 516.558594 208.902344 L 516.550781 206.777344 L 517.785156 208.503906 L 519.800781 207.835938 L 518.546875 209.554688 L 519.800781 211.265625 L 517.785156 210.601563 L 516.550781 212.328125 L 516.558594 210.199219 "/>
<path style=" stroke:none;fill-rule:nonzero;fill:rgb(100%,92.89856%,0%);fill-opacity:1;" d="M 520.9375 203.117188 L 522.953125 202.46875 L 522.945313 200.34375 L 524.183594 202.066406 L 526.191406 201.402344 L 524.941406 203.117188 L 526.191406 204.828125 L 524.183594 204.164063 L 522.945313 205.890625 L 522.953125 203.761719 "/>
<path style=" stroke:none;fill-rule:nonzero;fill:rgb(100%,92.89856%,0%);fill-opacity:1;" d="M 490.757813 185.691406 L 492.777344 186.339844 L 492.769531 188.46875 L 494.003906 186.738281 L 496.011719 187.40625 L 494.761719 185.691406 L 496.011719 183.976563 L 494.003906 184.644531 L 492.769531 182.921875 L 492.777344 185.046875 "/>
<path style=" stroke:none;fill-rule:nonzero;fill:rgb(100%,92.89856%,0%);fill-opacity:1;" d="M 497.15625 179.28125 L 499.171875 179.925781 L 499.160156 182.054688 L 500.398438 180.328125 L 502.40625 180.992188 L 501.15625 179.28125 L 502.40625 177.5625 L 500.398438 178.230469 L 499.160156 176.507813 L 499.171875 178.632813 "/>
<path style=" stroke:none;fill-rule:nonzero;fill:rgb(100%,92.89856%,0%);fill-opacity:1;" d="M 505.84375 176.914063 L 507.867188 177.5625 L 507.855469 179.6875 L 509.09375 177.964844 L 511.101563 178.632813 L 509.851563 176.914063 L 511.101563 175.199219 L 509.09375 175.867188 L 507.855469 174.140625 L 507.867188 176.269531 "/>
<path style=" stroke:none;fill-rule:nonzero;fill:rgb(100%,92.89856%,0%);fill-opacity:1;" d="M 514.546875 179.253906 L 516.558594 179.902344 L 516.550781 182.027344 L 517.785156 180.304688 L 519.800781 180.96875 L 518.546875 179.253906 L 519.800781 177.542969 L 517.785156 178.207031 L 516.550781 176.480469 L 516.558594 178.609375 "/>
<path style=" stroke:none;fill-rule:nonzero;fill:rgb(100%,92.89856%,0%);fill-opacity:1;" d="M 520.9375 185.691406 L 522.953125 186.339844 L 522.945313 188.46875 L 524.183594 186.738281 L 526.191406 187.40625 L 524.941406 185.691406 L 526.191406 183.976563 L 524.183594 184.644531 L 522.945313 182.921875 L 522.953125 185.046875 "/>
</g>
</svg>
